%TF.GenerationSoftware,KiCad,Pcbnew,7.0.10*%
%TF.CreationDate,2024-01-02T16:32:01-06:00*%
%TF.ProjectId,Keyboard3x3,4b657962-6f61-4726-9433-78332e6b6963,rev?*%
%TF.SameCoordinates,Original*%
%TF.FileFunction,Legend,Bot*%
%TF.FilePolarity,Positive*%
%FSLAX46Y46*%
G04 Gerber Fmt 4.6, Leading zero omitted, Abs format (unit mm)*
G04 Created by KiCad (PCBNEW 7.0.10) date 2024-01-02 16:32:01*
%MOMM*%
%LPD*%
G01*
G04 APERTURE LIST*
G04 Aperture macros list*
%AMRoundRect*
0 Rectangle with rounded corners*
0 $1 Rounding radius*
0 $2 $3 $4 $5 $6 $7 $8 $9 X,Y pos of 4 corners*
0 Add a 4 corners polygon primitive as box body*
4,1,4,$2,$3,$4,$5,$6,$7,$8,$9,$2,$3,0*
0 Add four circle primitives for the rounded corners*
1,1,$1+$1,$2,$3*
1,1,$1+$1,$4,$5*
1,1,$1+$1,$6,$7*
1,1,$1+$1,$8,$9*
0 Add four rect primitives between the rounded corners*
20,1,$1+$1,$2,$3,$4,$5,0*
20,1,$1+$1,$4,$5,$6,$7,0*
20,1,$1+$1,$6,$7,$8,$9,0*
20,1,$1+$1,$8,$9,$2,$3,0*%
%AMHorizOval*
0 Thick line with rounded ends*
0 $1 width*
0 $2 $3 position (X,Y) of the first rounded end (center of the circle)*
0 $4 $5 position (X,Y) of the second rounded end (center of the circle)*
0 Add line between two ends*
20,1,$1,$2,$3,$4,$5,0*
0 Add two circle primitives to create the rounded ends*
1,1,$1,$2,$3*
1,1,$1,$4,$5*%
G04 Aperture macros list end*
%ADD10C,0.150000*%
%ADD11C,0.120000*%
%ADD12R,1.400000X1.200000*%
%ADD13R,0.500000X2.250000*%
%ADD14O,1.700000X2.700000*%
%ADD15R,1.500000X0.550000*%
%ADD16R,0.550000X1.500000*%
%ADD17R,1.800000X1.100000*%
%ADD18RoundRect,0.250000X-0.450000X0.262500X-0.450000X-0.262500X0.450000X-0.262500X0.450000X0.262500X0*%
%ADD19HorizOval,2.250000X0.020000X0.290000X-0.020000X-0.290000X0*%
%ADD20C,2.250000*%
%ADD21HorizOval,2.250000X0.655001X0.730000X-0.655001X-0.730000X0*%
%ADD22C,3.987800*%
%ADD23C,1.905000*%
%ADD24R,1.905000X1.905000*%
%ADD25C,1.750000*%
%ADD26RoundRect,0.250000X-0.625000X0.375000X-0.625000X-0.375000X0.625000X-0.375000X0.625000X0.375000X0*%
%ADD27RoundRect,0.225000X0.375000X-0.225000X0.375000X0.225000X-0.375000X0.225000X-0.375000X-0.225000X0*%
%ADD28RoundRect,0.250000X0.250000X0.475000X-0.250000X0.475000X-0.250000X-0.475000X0.250000X-0.475000X0*%
%ADD29RoundRect,0.250000X-0.250000X-0.475000X0.250000X-0.475000X0.250000X0.475000X-0.250000X0.475000X0*%
%ADD30RoundRect,0.250000X0.475000X-0.250000X0.475000X0.250000X-0.475000X0.250000X-0.475000X-0.250000X0*%
%ADD31RoundRect,0.250000X-0.475000X0.250000X-0.475000X-0.250000X0.475000X-0.250000X0.475000X0.250000X0*%
G04 APERTURE END LIST*
D10*
X61881558Y-53293896D02*
X61881558Y-53770087D01*
X62214891Y-52770087D02*
X61881558Y-53293896D01*
X61881558Y-53293896D02*
X61548225Y-52770087D01*
X60691082Y-53770087D02*
X61262510Y-53770087D01*
X60976796Y-53770087D02*
X60976796Y-52770087D01*
X60976796Y-52770087D02*
X61072034Y-52912944D01*
X61072034Y-52912944D02*
X61167272Y-53008182D01*
X61167272Y-53008182D02*
X61262510Y-53055801D01*
X46390094Y-50936819D02*
X46390094Y-51746342D01*
X46390094Y-51746342D02*
X46342475Y-51841580D01*
X46342475Y-51841580D02*
X46294856Y-51889200D01*
X46294856Y-51889200D02*
X46199618Y-51936819D01*
X46199618Y-51936819D02*
X46009142Y-51936819D01*
X46009142Y-51936819D02*
X45913904Y-51889200D01*
X45913904Y-51889200D02*
X45866285Y-51841580D01*
X45866285Y-51841580D02*
X45818666Y-51746342D01*
X45818666Y-51746342D02*
X45818666Y-50936819D01*
X45390094Y-51889200D02*
X45247237Y-51936819D01*
X45247237Y-51936819D02*
X45009142Y-51936819D01*
X45009142Y-51936819D02*
X44913904Y-51889200D01*
X44913904Y-51889200D02*
X44866285Y-51841580D01*
X44866285Y-51841580D02*
X44818666Y-51746342D01*
X44818666Y-51746342D02*
X44818666Y-51651104D01*
X44818666Y-51651104D02*
X44866285Y-51555866D01*
X44866285Y-51555866D02*
X44913904Y-51508247D01*
X44913904Y-51508247D02*
X45009142Y-51460628D01*
X45009142Y-51460628D02*
X45199618Y-51413009D01*
X45199618Y-51413009D02*
X45294856Y-51365390D01*
X45294856Y-51365390D02*
X45342475Y-51317771D01*
X45342475Y-51317771D02*
X45390094Y-51222533D01*
X45390094Y-51222533D02*
X45390094Y-51127295D01*
X45390094Y-51127295D02*
X45342475Y-51032057D01*
X45342475Y-51032057D02*
X45294856Y-50984438D01*
X45294856Y-50984438D02*
X45199618Y-50936819D01*
X45199618Y-50936819D02*
X44961523Y-50936819D01*
X44961523Y-50936819D02*
X44818666Y-50984438D01*
X44056761Y-51413009D02*
X43913904Y-51460628D01*
X43913904Y-51460628D02*
X43866285Y-51508247D01*
X43866285Y-51508247D02*
X43818666Y-51603485D01*
X43818666Y-51603485D02*
X43818666Y-51746342D01*
X43818666Y-51746342D02*
X43866285Y-51841580D01*
X43866285Y-51841580D02*
X43913904Y-51889200D01*
X43913904Y-51889200D02*
X44009142Y-51936819D01*
X44009142Y-51936819D02*
X44390094Y-51936819D01*
X44390094Y-51936819D02*
X44390094Y-50936819D01*
X44390094Y-50936819D02*
X44056761Y-50936819D01*
X44056761Y-50936819D02*
X43961523Y-50984438D01*
X43961523Y-50984438D02*
X43913904Y-51032057D01*
X43913904Y-51032057D02*
X43866285Y-51127295D01*
X43866285Y-51127295D02*
X43866285Y-51222533D01*
X43866285Y-51222533D02*
X43913904Y-51317771D01*
X43913904Y-51317771D02*
X43961523Y-51365390D01*
X43961523Y-51365390D02*
X44056761Y-51413009D01*
X44056761Y-51413009D02*
X44390094Y-51413009D01*
X42866285Y-51936819D02*
X43437713Y-51936819D01*
X43151999Y-51936819D02*
X43151999Y-50936819D01*
X43151999Y-50936819D02*
X43247237Y-51079676D01*
X43247237Y-51079676D02*
X43342475Y-51174914D01*
X43342475Y-51174914D02*
X43437713Y-51222533D01*
X59541904Y-73369819D02*
X59541904Y-74179342D01*
X59541904Y-74179342D02*
X59494285Y-74274580D01*
X59494285Y-74274580D02*
X59446666Y-74322200D01*
X59446666Y-74322200D02*
X59351428Y-74369819D01*
X59351428Y-74369819D02*
X59160952Y-74369819D01*
X59160952Y-74369819D02*
X59065714Y-74322200D01*
X59065714Y-74322200D02*
X59018095Y-74274580D01*
X59018095Y-74274580D02*
X58970476Y-74179342D01*
X58970476Y-74179342D02*
X58970476Y-73369819D01*
X57970476Y-74369819D02*
X58541904Y-74369819D01*
X58256190Y-74369819D02*
X58256190Y-73369819D01*
X58256190Y-73369819D02*
X58351428Y-73512676D01*
X58351428Y-73512676D02*
X58446666Y-73607914D01*
X58446666Y-73607914D02*
X58541904Y-73655533D01*
X50959772Y-79024450D02*
X50816915Y-79072069D01*
X50816915Y-79072069D02*
X50578820Y-79072069D01*
X50578820Y-79072069D02*
X50483582Y-79024450D01*
X50483582Y-79024450D02*
X50435963Y-78976830D01*
X50435963Y-78976830D02*
X50388344Y-78881592D01*
X50388344Y-78881592D02*
X50388344Y-78786354D01*
X50388344Y-78786354D02*
X50435963Y-78691116D01*
X50435963Y-78691116D02*
X50483582Y-78643497D01*
X50483582Y-78643497D02*
X50578820Y-78595878D01*
X50578820Y-78595878D02*
X50769296Y-78548259D01*
X50769296Y-78548259D02*
X50864534Y-78500640D01*
X50864534Y-78500640D02*
X50912153Y-78453021D01*
X50912153Y-78453021D02*
X50959772Y-78357783D01*
X50959772Y-78357783D02*
X50959772Y-78262545D01*
X50959772Y-78262545D02*
X50912153Y-78167307D01*
X50912153Y-78167307D02*
X50864534Y-78119688D01*
X50864534Y-78119688D02*
X50769296Y-78072069D01*
X50769296Y-78072069D02*
X50531201Y-78072069D01*
X50531201Y-78072069D02*
X50388344Y-78119688D01*
X50055010Y-78072069D02*
X49816915Y-79072069D01*
X49816915Y-79072069D02*
X49626439Y-78357783D01*
X49626439Y-78357783D02*
X49435963Y-79072069D01*
X49435963Y-79072069D02*
X49197868Y-78072069D01*
X48293106Y-79072069D02*
X48864534Y-79072069D01*
X48578820Y-79072069D02*
X48578820Y-78072069D01*
X48578820Y-78072069D02*
X48674058Y-78214926D01*
X48674058Y-78214926D02*
X48769296Y-78310164D01*
X48769296Y-78310164D02*
X48864534Y-78357783D01*
X69169416Y-71961819D02*
X69502749Y-71485628D01*
X69740844Y-71961819D02*
X69740844Y-70961819D01*
X69740844Y-70961819D02*
X69359892Y-70961819D01*
X69359892Y-70961819D02*
X69264654Y-71009438D01*
X69264654Y-71009438D02*
X69217035Y-71057057D01*
X69217035Y-71057057D02*
X69169416Y-71152295D01*
X69169416Y-71152295D02*
X69169416Y-71295152D01*
X69169416Y-71295152D02*
X69217035Y-71390390D01*
X69217035Y-71390390D02*
X69264654Y-71438009D01*
X69264654Y-71438009D02*
X69359892Y-71485628D01*
X69359892Y-71485628D02*
X69740844Y-71485628D01*
X68312273Y-71295152D02*
X68312273Y-71961819D01*
X68550368Y-70914200D02*
X68788463Y-71628485D01*
X68788463Y-71628485D02*
X68169416Y-71628485D01*
X49456666Y-60629819D02*
X49789999Y-60153628D01*
X50028094Y-60629819D02*
X50028094Y-59629819D01*
X50028094Y-59629819D02*
X49647142Y-59629819D01*
X49647142Y-59629819D02*
X49551904Y-59677438D01*
X49551904Y-59677438D02*
X49504285Y-59725057D01*
X49504285Y-59725057D02*
X49456666Y-59820295D01*
X49456666Y-59820295D02*
X49456666Y-59963152D01*
X49456666Y-59963152D02*
X49504285Y-60058390D01*
X49504285Y-60058390D02*
X49551904Y-60106009D01*
X49551904Y-60106009D02*
X49647142Y-60153628D01*
X49647142Y-60153628D02*
X50028094Y-60153628D01*
X49123332Y-59629819D02*
X48504285Y-59629819D01*
X48504285Y-59629819D02*
X48837618Y-60010771D01*
X48837618Y-60010771D02*
X48694761Y-60010771D01*
X48694761Y-60010771D02*
X48599523Y-60058390D01*
X48599523Y-60058390D02*
X48551904Y-60106009D01*
X48551904Y-60106009D02*
X48504285Y-60201247D01*
X48504285Y-60201247D02*
X48504285Y-60439342D01*
X48504285Y-60439342D02*
X48551904Y-60534580D01*
X48551904Y-60534580D02*
X48599523Y-60582200D01*
X48599523Y-60582200D02*
X48694761Y-60629819D01*
X48694761Y-60629819D02*
X48980475Y-60629819D01*
X48980475Y-60629819D02*
X49075713Y-60582200D01*
X49075713Y-60582200D02*
X49123332Y-60534580D01*
X45646666Y-61899819D02*
X45979999Y-61423628D01*
X46218094Y-61899819D02*
X46218094Y-60899819D01*
X46218094Y-60899819D02*
X45837142Y-60899819D01*
X45837142Y-60899819D02*
X45741904Y-60947438D01*
X45741904Y-60947438D02*
X45694285Y-60995057D01*
X45694285Y-60995057D02*
X45646666Y-61090295D01*
X45646666Y-61090295D02*
X45646666Y-61233152D01*
X45646666Y-61233152D02*
X45694285Y-61328390D01*
X45694285Y-61328390D02*
X45741904Y-61376009D01*
X45741904Y-61376009D02*
X45837142Y-61423628D01*
X45837142Y-61423628D02*
X46218094Y-61423628D01*
X45265713Y-60995057D02*
X45218094Y-60947438D01*
X45218094Y-60947438D02*
X45122856Y-60899819D01*
X45122856Y-60899819D02*
X44884761Y-60899819D01*
X44884761Y-60899819D02*
X44789523Y-60947438D01*
X44789523Y-60947438D02*
X44741904Y-60995057D01*
X44741904Y-60995057D02*
X44694285Y-61090295D01*
X44694285Y-61090295D02*
X44694285Y-61185533D01*
X44694285Y-61185533D02*
X44741904Y-61328390D01*
X44741904Y-61328390D02*
X45313332Y-61899819D01*
X45313332Y-61899819D02*
X44694285Y-61899819D01*
X43741666Y-61899819D02*
X44074999Y-61423628D01*
X44313094Y-61899819D02*
X44313094Y-60899819D01*
X44313094Y-60899819D02*
X43932142Y-60899819D01*
X43932142Y-60899819D02*
X43836904Y-60947438D01*
X43836904Y-60947438D02*
X43789285Y-60995057D01*
X43789285Y-60995057D02*
X43741666Y-61090295D01*
X43741666Y-61090295D02*
X43741666Y-61233152D01*
X43741666Y-61233152D02*
X43789285Y-61328390D01*
X43789285Y-61328390D02*
X43836904Y-61376009D01*
X43836904Y-61376009D02*
X43932142Y-61423628D01*
X43932142Y-61423628D02*
X44313094Y-61423628D01*
X42789285Y-61899819D02*
X43360713Y-61899819D01*
X43074999Y-61899819D02*
X43074999Y-60899819D01*
X43074999Y-60899819D02*
X43170237Y-61042676D01*
X43170237Y-61042676D02*
X43265475Y-61137914D01*
X43265475Y-61137914D02*
X43360713Y-61185533D01*
X40775273Y-65524759D02*
X41108606Y-65524759D01*
X41108606Y-66048569D02*
X41108606Y-65048569D01*
X41108606Y-65048569D02*
X40632416Y-65048569D01*
X39727654Y-66048569D02*
X40299082Y-66048569D01*
X40013368Y-66048569D02*
X40013368Y-65048569D01*
X40013368Y-65048569D02*
X40108606Y-65191426D01*
X40108606Y-65191426D02*
X40203844Y-65286664D01*
X40203844Y-65286664D02*
X40299082Y-65334283D01*
X106635594Y-73554819D02*
X106635594Y-72554819D01*
X106635594Y-72554819D02*
X106397499Y-72554819D01*
X106397499Y-72554819D02*
X106254642Y-72602438D01*
X106254642Y-72602438D02*
X106159404Y-72697676D01*
X106159404Y-72697676D02*
X106111785Y-72792914D01*
X106111785Y-72792914D02*
X106064166Y-72983390D01*
X106064166Y-72983390D02*
X106064166Y-73126247D01*
X106064166Y-73126247D02*
X106111785Y-73316723D01*
X106111785Y-73316723D02*
X106159404Y-73411961D01*
X106159404Y-73411961D02*
X106254642Y-73507200D01*
X106254642Y-73507200D02*
X106397499Y-73554819D01*
X106397499Y-73554819D02*
X106635594Y-73554819D01*
X105207023Y-72888152D02*
X105207023Y-73554819D01*
X105445118Y-72507200D02*
X105683213Y-73221485D01*
X105683213Y-73221485D02*
X105064166Y-73221485D01*
X106635594Y-54504819D02*
X106635594Y-53504819D01*
X106635594Y-53504819D02*
X106397499Y-53504819D01*
X106397499Y-53504819D02*
X106254642Y-53552438D01*
X106254642Y-53552438D02*
X106159404Y-53647676D01*
X106159404Y-53647676D02*
X106111785Y-53742914D01*
X106111785Y-53742914D02*
X106064166Y-53933390D01*
X106064166Y-53933390D02*
X106064166Y-54076247D01*
X106064166Y-54076247D02*
X106111785Y-54266723D01*
X106111785Y-54266723D02*
X106159404Y-54361961D01*
X106159404Y-54361961D02*
X106254642Y-54457200D01*
X106254642Y-54457200D02*
X106397499Y-54504819D01*
X106397499Y-54504819D02*
X106635594Y-54504819D01*
X105730832Y-53504819D02*
X105111785Y-53504819D01*
X105111785Y-53504819D02*
X105445118Y-53885771D01*
X105445118Y-53885771D02*
X105302261Y-53885771D01*
X105302261Y-53885771D02*
X105207023Y-53933390D01*
X105207023Y-53933390D02*
X105159404Y-53981009D01*
X105159404Y-53981009D02*
X105111785Y-54076247D01*
X105111785Y-54076247D02*
X105111785Y-54314342D01*
X105111785Y-54314342D02*
X105159404Y-54409580D01*
X105159404Y-54409580D02*
X105207023Y-54457200D01*
X105207023Y-54457200D02*
X105302261Y-54504819D01*
X105302261Y-54504819D02*
X105587975Y-54504819D01*
X105587975Y-54504819D02*
X105683213Y-54457200D01*
X105683213Y-54457200D02*
X105730832Y-54409580D01*
X87585594Y-73554819D02*
X87585594Y-72554819D01*
X87585594Y-72554819D02*
X87347499Y-72554819D01*
X87347499Y-72554819D02*
X87204642Y-72602438D01*
X87204642Y-72602438D02*
X87109404Y-72697676D01*
X87109404Y-72697676D02*
X87061785Y-72792914D01*
X87061785Y-72792914D02*
X87014166Y-72983390D01*
X87014166Y-72983390D02*
X87014166Y-73126247D01*
X87014166Y-73126247D02*
X87061785Y-73316723D01*
X87061785Y-73316723D02*
X87109404Y-73411961D01*
X87109404Y-73411961D02*
X87204642Y-73507200D01*
X87204642Y-73507200D02*
X87347499Y-73554819D01*
X87347499Y-73554819D02*
X87585594Y-73554819D01*
X86633213Y-72650057D02*
X86585594Y-72602438D01*
X86585594Y-72602438D02*
X86490356Y-72554819D01*
X86490356Y-72554819D02*
X86252261Y-72554819D01*
X86252261Y-72554819D02*
X86157023Y-72602438D01*
X86157023Y-72602438D02*
X86109404Y-72650057D01*
X86109404Y-72650057D02*
X86061785Y-72745295D01*
X86061785Y-72745295D02*
X86061785Y-72840533D01*
X86061785Y-72840533D02*
X86109404Y-72983390D01*
X86109404Y-72983390D02*
X86680832Y-73554819D01*
X86680832Y-73554819D02*
X86061785Y-73554819D01*
X87585594Y-54504819D02*
X87585594Y-53504819D01*
X87585594Y-53504819D02*
X87347499Y-53504819D01*
X87347499Y-53504819D02*
X87204642Y-53552438D01*
X87204642Y-53552438D02*
X87109404Y-53647676D01*
X87109404Y-53647676D02*
X87061785Y-53742914D01*
X87061785Y-53742914D02*
X87014166Y-53933390D01*
X87014166Y-53933390D02*
X87014166Y-54076247D01*
X87014166Y-54076247D02*
X87061785Y-54266723D01*
X87061785Y-54266723D02*
X87109404Y-54361961D01*
X87109404Y-54361961D02*
X87204642Y-54457200D01*
X87204642Y-54457200D02*
X87347499Y-54504819D01*
X87347499Y-54504819D02*
X87585594Y-54504819D01*
X86061785Y-54504819D02*
X86633213Y-54504819D01*
X86347499Y-54504819D02*
X86347499Y-53504819D01*
X86347499Y-53504819D02*
X86442737Y-53647676D01*
X86442737Y-53647676D02*
X86537975Y-53742914D01*
X86537975Y-53742914D02*
X86633213Y-53790533D01*
X50190416Y-64607580D02*
X50238035Y-64655200D01*
X50238035Y-64655200D02*
X50380892Y-64702819D01*
X50380892Y-64702819D02*
X50476130Y-64702819D01*
X50476130Y-64702819D02*
X50618987Y-64655200D01*
X50618987Y-64655200D02*
X50714225Y-64559961D01*
X50714225Y-64559961D02*
X50761844Y-64464723D01*
X50761844Y-64464723D02*
X50809463Y-64274247D01*
X50809463Y-64274247D02*
X50809463Y-64131390D01*
X50809463Y-64131390D02*
X50761844Y-63940914D01*
X50761844Y-63940914D02*
X50714225Y-63845676D01*
X50714225Y-63845676D02*
X50618987Y-63750438D01*
X50618987Y-63750438D02*
X50476130Y-63702819D01*
X50476130Y-63702819D02*
X50380892Y-63702819D01*
X50380892Y-63702819D02*
X50238035Y-63750438D01*
X50238035Y-63750438D02*
X50190416Y-63798057D01*
X49857082Y-63702819D02*
X49190416Y-63702819D01*
X49190416Y-63702819D02*
X49618987Y-64702819D01*
X55010666Y-76959080D02*
X55058285Y-77006700D01*
X55058285Y-77006700D02*
X55201142Y-77054319D01*
X55201142Y-77054319D02*
X55296380Y-77054319D01*
X55296380Y-77054319D02*
X55439237Y-77006700D01*
X55439237Y-77006700D02*
X55534475Y-76911461D01*
X55534475Y-76911461D02*
X55582094Y-76816223D01*
X55582094Y-76816223D02*
X55629713Y-76625747D01*
X55629713Y-76625747D02*
X55629713Y-76482890D01*
X55629713Y-76482890D02*
X55582094Y-76292414D01*
X55582094Y-76292414D02*
X55534475Y-76197176D01*
X55534475Y-76197176D02*
X55439237Y-76101938D01*
X55439237Y-76101938D02*
X55296380Y-76054319D01*
X55296380Y-76054319D02*
X55201142Y-76054319D01*
X55201142Y-76054319D02*
X55058285Y-76101938D01*
X55058285Y-76101938D02*
X55010666Y-76149557D01*
X54153523Y-76054319D02*
X54343999Y-76054319D01*
X54343999Y-76054319D02*
X54439237Y-76101938D01*
X54439237Y-76101938D02*
X54486856Y-76149557D01*
X54486856Y-76149557D02*
X54582094Y-76292414D01*
X54582094Y-76292414D02*
X54629713Y-76482890D01*
X54629713Y-76482890D02*
X54629713Y-76863842D01*
X54629713Y-76863842D02*
X54582094Y-76959080D01*
X54582094Y-76959080D02*
X54534475Y-77006700D01*
X54534475Y-77006700D02*
X54439237Y-77054319D01*
X54439237Y-77054319D02*
X54248761Y-77054319D01*
X54248761Y-77054319D02*
X54153523Y-77006700D01*
X54153523Y-77006700D02*
X54105904Y-76959080D01*
X54105904Y-76959080D02*
X54058285Y-76863842D01*
X54058285Y-76863842D02*
X54058285Y-76625747D01*
X54058285Y-76625747D02*
X54105904Y-76530509D01*
X54105904Y-76530509D02*
X54153523Y-76482890D01*
X54153523Y-76482890D02*
X54248761Y-76435271D01*
X54248761Y-76435271D02*
X54439237Y-76435271D01*
X54439237Y-76435271D02*
X54534475Y-76482890D01*
X54534475Y-76482890D02*
X54582094Y-76530509D01*
X54582094Y-76530509D02*
X54629713Y-76625747D01*
X54971666Y-56109580D02*
X55019285Y-56157200D01*
X55019285Y-56157200D02*
X55162142Y-56204819D01*
X55162142Y-56204819D02*
X55257380Y-56204819D01*
X55257380Y-56204819D02*
X55400237Y-56157200D01*
X55400237Y-56157200D02*
X55495475Y-56061961D01*
X55495475Y-56061961D02*
X55543094Y-55966723D01*
X55543094Y-55966723D02*
X55590713Y-55776247D01*
X55590713Y-55776247D02*
X55590713Y-55633390D01*
X55590713Y-55633390D02*
X55543094Y-55442914D01*
X55543094Y-55442914D02*
X55495475Y-55347676D01*
X55495475Y-55347676D02*
X55400237Y-55252438D01*
X55400237Y-55252438D02*
X55257380Y-55204819D01*
X55257380Y-55204819D02*
X55162142Y-55204819D01*
X55162142Y-55204819D02*
X55019285Y-55252438D01*
X55019285Y-55252438D02*
X54971666Y-55300057D01*
X54066904Y-55204819D02*
X54543094Y-55204819D01*
X54543094Y-55204819D02*
X54590713Y-55681009D01*
X54590713Y-55681009D02*
X54543094Y-55633390D01*
X54543094Y-55633390D02*
X54447856Y-55585771D01*
X54447856Y-55585771D02*
X54209761Y-55585771D01*
X54209761Y-55585771D02*
X54114523Y-55633390D01*
X54114523Y-55633390D02*
X54066904Y-55681009D01*
X54066904Y-55681009D02*
X54019285Y-55776247D01*
X54019285Y-55776247D02*
X54019285Y-56014342D01*
X54019285Y-56014342D02*
X54066904Y-56109580D01*
X54066904Y-56109580D02*
X54114523Y-56157200D01*
X54114523Y-56157200D02*
X54209761Y-56204819D01*
X54209761Y-56204819D02*
X54447856Y-56204819D01*
X54447856Y-56204819D02*
X54543094Y-56157200D01*
X54543094Y-56157200D02*
X54590713Y-56109580D01*
X67486666Y-56109580D02*
X67534285Y-56157200D01*
X67534285Y-56157200D02*
X67677142Y-56204819D01*
X67677142Y-56204819D02*
X67772380Y-56204819D01*
X67772380Y-56204819D02*
X67915237Y-56157200D01*
X67915237Y-56157200D02*
X68010475Y-56061961D01*
X68010475Y-56061961D02*
X68058094Y-55966723D01*
X68058094Y-55966723D02*
X68105713Y-55776247D01*
X68105713Y-55776247D02*
X68105713Y-55633390D01*
X68105713Y-55633390D02*
X68058094Y-55442914D01*
X68058094Y-55442914D02*
X68010475Y-55347676D01*
X68010475Y-55347676D02*
X67915237Y-55252438D01*
X67915237Y-55252438D02*
X67772380Y-55204819D01*
X67772380Y-55204819D02*
X67677142Y-55204819D01*
X67677142Y-55204819D02*
X67534285Y-55252438D01*
X67534285Y-55252438D02*
X67486666Y-55300057D01*
X66629523Y-55538152D02*
X66629523Y-56204819D01*
X66867618Y-55157200D02*
X67105713Y-55871485D01*
X67105713Y-55871485D02*
X66486666Y-55871485D01*
X62731666Y-77023830D02*
X62779285Y-77071450D01*
X62779285Y-77071450D02*
X62922142Y-77119069D01*
X62922142Y-77119069D02*
X63017380Y-77119069D01*
X63017380Y-77119069D02*
X63160237Y-77071450D01*
X63160237Y-77071450D02*
X63255475Y-76976211D01*
X63255475Y-76976211D02*
X63303094Y-76880973D01*
X63303094Y-76880973D02*
X63350713Y-76690497D01*
X63350713Y-76690497D02*
X63350713Y-76547640D01*
X63350713Y-76547640D02*
X63303094Y-76357164D01*
X63303094Y-76357164D02*
X63255475Y-76261926D01*
X63255475Y-76261926D02*
X63160237Y-76166688D01*
X63160237Y-76166688D02*
X63017380Y-76119069D01*
X63017380Y-76119069D02*
X62922142Y-76119069D01*
X62922142Y-76119069D02*
X62779285Y-76166688D01*
X62779285Y-76166688D02*
X62731666Y-76214307D01*
X62398332Y-76119069D02*
X61779285Y-76119069D01*
X61779285Y-76119069D02*
X62112618Y-76500021D01*
X62112618Y-76500021D02*
X61969761Y-76500021D01*
X61969761Y-76500021D02*
X61874523Y-76547640D01*
X61874523Y-76547640D02*
X61826904Y-76595259D01*
X61826904Y-76595259D02*
X61779285Y-76690497D01*
X61779285Y-76690497D02*
X61779285Y-76928592D01*
X61779285Y-76928592D02*
X61826904Y-77023830D01*
X61826904Y-77023830D02*
X61874523Y-77071450D01*
X61874523Y-77071450D02*
X61969761Y-77119069D01*
X61969761Y-77119069D02*
X62255475Y-77119069D01*
X62255475Y-77119069D02*
X62350713Y-77071450D01*
X62350713Y-77071450D02*
X62398332Y-77023830D01*
X69187666Y-63524830D02*
X69235285Y-63572450D01*
X69235285Y-63572450D02*
X69378142Y-63620069D01*
X69378142Y-63620069D02*
X69473380Y-63620069D01*
X69473380Y-63620069D02*
X69616237Y-63572450D01*
X69616237Y-63572450D02*
X69711475Y-63477211D01*
X69711475Y-63477211D02*
X69759094Y-63381973D01*
X69759094Y-63381973D02*
X69806713Y-63191497D01*
X69806713Y-63191497D02*
X69806713Y-63048640D01*
X69806713Y-63048640D02*
X69759094Y-62858164D01*
X69759094Y-62858164D02*
X69711475Y-62762926D01*
X69711475Y-62762926D02*
X69616237Y-62667688D01*
X69616237Y-62667688D02*
X69473380Y-62620069D01*
X69473380Y-62620069D02*
X69378142Y-62620069D01*
X69378142Y-62620069D02*
X69235285Y-62667688D01*
X69235285Y-62667688D02*
X69187666Y-62715307D01*
X68806713Y-62715307D02*
X68759094Y-62667688D01*
X68759094Y-62667688D02*
X68663856Y-62620069D01*
X68663856Y-62620069D02*
X68425761Y-62620069D01*
X68425761Y-62620069D02*
X68330523Y-62667688D01*
X68330523Y-62667688D02*
X68282904Y-62715307D01*
X68282904Y-62715307D02*
X68235285Y-62810545D01*
X68235285Y-62810545D02*
X68235285Y-62905783D01*
X68235285Y-62905783D02*
X68282904Y-63048640D01*
X68282904Y-63048640D02*
X68854332Y-63620069D01*
X68854332Y-63620069D02*
X68235285Y-63620069D01*
X52021666Y-60554580D02*
X52069285Y-60602200D01*
X52069285Y-60602200D02*
X52212142Y-60649819D01*
X52212142Y-60649819D02*
X52307380Y-60649819D01*
X52307380Y-60649819D02*
X52450237Y-60602200D01*
X52450237Y-60602200D02*
X52545475Y-60506961D01*
X52545475Y-60506961D02*
X52593094Y-60411723D01*
X52593094Y-60411723D02*
X52640713Y-60221247D01*
X52640713Y-60221247D02*
X52640713Y-60078390D01*
X52640713Y-60078390D02*
X52593094Y-59887914D01*
X52593094Y-59887914D02*
X52545475Y-59792676D01*
X52545475Y-59792676D02*
X52450237Y-59697438D01*
X52450237Y-59697438D02*
X52307380Y-59649819D01*
X52307380Y-59649819D02*
X52212142Y-59649819D01*
X52212142Y-59649819D02*
X52069285Y-59697438D01*
X52069285Y-59697438D02*
X52021666Y-59745057D01*
X51069285Y-60649819D02*
X51640713Y-60649819D01*
X51354999Y-60649819D02*
X51354999Y-59649819D01*
X51354999Y-59649819D02*
X51450237Y-59792676D01*
X51450237Y-59792676D02*
X51545475Y-59887914D01*
X51545475Y-59887914D02*
X51640713Y-59935533D01*
D11*
%TO.C,Y1*%
X63405368Y-57415268D02*
X59405368Y-57415268D01*
X63405368Y-54115268D02*
X63405368Y-57415268D01*
D10*
%TO.C,USB1*%
X40802000Y-54900000D02*
X48502000Y-54900000D01*
X48502000Y-49450000D02*
X48502000Y-54900000D01*
X40802000Y-49450000D02*
X40802000Y-54900000D01*
%TO.C,U1*%
X53605000Y-61290000D02*
X53605000Y-61965000D01*
X53605000Y-61290000D02*
X54280000Y-61290000D01*
X63955000Y-61290000D02*
X63955000Y-61965000D01*
X63955000Y-71640000D02*
X63955000Y-70965000D01*
X53605000Y-71640000D02*
X54280000Y-71640000D01*
X63955000Y-61290000D02*
X63280000Y-61290000D01*
X53605000Y-71065000D02*
X52330000Y-71065000D01*
X63955000Y-71640000D02*
X63280000Y-71640000D01*
X53605000Y-71640000D02*
X53605000Y-71065000D01*
%TO.C,SW1*%
X50626440Y-82173250D02*
G75*
G03*
X48626440Y-82173250I-1000000J0D01*
G01*
X48626440Y-82173250D02*
G75*
G03*
X50626440Y-82173250I1000000J0D01*
G01*
X52226440Y-84773250D02*
X52226440Y-79573250D01*
X47026440Y-84773250D02*
X52226440Y-84773250D01*
X47026440Y-79573250D02*
X47026440Y-84773250D01*
X52226440Y-79573250D02*
X47026440Y-79573250D01*
D11*
%TO.C,R4*%
X67450750Y-71406936D02*
X67450750Y-71861064D01*
X65980750Y-71406936D02*
X65980750Y-71861064D01*
%TO.C,R3*%
X48555000Y-57407936D02*
X48555000Y-57862064D01*
X50025000Y-57407936D02*
X50025000Y-57862064D01*
%TO.C,R2*%
X44745000Y-58677936D02*
X44745000Y-59132064D01*
X46215000Y-58677936D02*
X46215000Y-59132064D01*
%TO.C,R1*%
X42840000Y-58677936D02*
X42840000Y-59132064D01*
X44310000Y-58677936D02*
X44310000Y-59132064D01*
%TO.C,F1*%
X43806940Y-64991686D02*
X43806940Y-66195814D01*
X41986940Y-64991686D02*
X41986940Y-66195814D01*
%TO.C,D4*%
X106802500Y-78635000D02*
X104802500Y-78635000D01*
X106802500Y-78635000D02*
X106802500Y-74625000D01*
X104802500Y-78635000D02*
X104802500Y-74625000D01*
%TO.C,D3*%
X106802500Y-59585000D02*
X104802500Y-59585000D01*
X106802500Y-59585000D02*
X106802500Y-55575000D01*
X104802500Y-59585000D02*
X104802500Y-55575000D01*
%TO.C,D2*%
X87752500Y-78635000D02*
X85752500Y-78635000D01*
X87752500Y-78635000D02*
X87752500Y-74625000D01*
X85752500Y-78635000D02*
X85752500Y-74625000D01*
%TO.C,D1*%
X85752500Y-59585000D02*
X85752500Y-55575000D01*
X87752500Y-59585000D02*
X87752500Y-55575000D01*
X87752500Y-59585000D02*
X85752500Y-59585000D01*
%TO.C,C7*%
X50285002Y-66663000D02*
X49762498Y-66663000D01*
X50285002Y-65193000D02*
X49762498Y-65193000D01*
%TO.C,C6*%
X54582748Y-75654500D02*
X55105252Y-75654500D01*
X54582748Y-74184500D02*
X55105252Y-74184500D01*
%TO.C,C5*%
X56200000Y-56011252D02*
X56200000Y-55488748D01*
X57670000Y-56011252D02*
X57670000Y-55488748D01*
%TO.C,C4*%
X65925000Y-55488748D02*
X65925000Y-56011252D01*
X64455000Y-55488748D02*
X64455000Y-56011252D01*
%TO.C,C3*%
X62826252Y-74180250D02*
X62303748Y-74180250D01*
X62826252Y-75650250D02*
X62303748Y-75650250D01*
%TO.C,C2*%
X67441000Y-63426502D02*
X67441000Y-62903998D01*
X65971000Y-63426502D02*
X65971000Y-62903998D01*
%TO.C,C1*%
X52590000Y-57916252D02*
X52590000Y-57393748D01*
X51120000Y-57916252D02*
X51120000Y-57393748D01*
%TD*%
%LPC*%
D12*
%TO.C,Y1*%
X62505368Y-54915268D03*
X60305368Y-54915268D03*
X60305368Y-56615268D03*
X62505368Y-56615268D03*
%TD*%
D13*
%TO.C,USB1*%
X46252000Y-53950000D03*
X45452000Y-53950000D03*
X44652000Y-53950000D03*
X43852000Y-53950000D03*
X43052000Y-53950000D03*
D14*
X41002000Y-53950000D03*
X48302000Y-53950000D03*
X48302000Y-49450000D03*
X41002000Y-49450000D03*
%TD*%
D15*
%TO.C,U1*%
X53080000Y-70465000D03*
X53080000Y-69665000D03*
X53080000Y-68865000D03*
X53080000Y-68065000D03*
X53080000Y-67265000D03*
X53080000Y-66465000D03*
X53080000Y-65665000D03*
X53080000Y-64865000D03*
X53080000Y-64065000D03*
X53080000Y-63265000D03*
X53080000Y-62465000D03*
D16*
X54780000Y-60765000D03*
X55580000Y-60765000D03*
X56380000Y-60765000D03*
X57180000Y-60765000D03*
X57980000Y-60765000D03*
X58780000Y-60765000D03*
X59580000Y-60765000D03*
X60380000Y-60765000D03*
X61180000Y-60765000D03*
X61980000Y-60765000D03*
X62780000Y-60765000D03*
D15*
X64480000Y-62465000D03*
X64480000Y-63265000D03*
X64480000Y-64065000D03*
X64480000Y-64865000D03*
X64480000Y-65665000D03*
X64480000Y-66465000D03*
X64480000Y-67265000D03*
X64480000Y-68065000D03*
X64480000Y-68865000D03*
X64480000Y-69665000D03*
X64480000Y-70465000D03*
D16*
X62780000Y-72165000D03*
X61980000Y-72165000D03*
X61180000Y-72165000D03*
X60380000Y-72165000D03*
X59580000Y-72165000D03*
X58780000Y-72165000D03*
X57980000Y-72165000D03*
X57180000Y-72165000D03*
X56380000Y-72165000D03*
X55580000Y-72165000D03*
X54780000Y-72165000D03*
%TD*%
D17*
%TO.C,SW1*%
X46526440Y-84023250D03*
X52726440Y-80323250D03*
X46526440Y-80323250D03*
X52726440Y-84023250D03*
%TD*%
D18*
%TO.C,R4*%
X66715750Y-72546500D03*
X66715750Y-70721500D03*
%TD*%
%TO.C,R3*%
X49290000Y-56722500D03*
X49290000Y-58547500D03*
%TD*%
%TO.C,R2*%
X45480000Y-57992500D03*
X45480000Y-59817500D03*
%TD*%
%TO.C,R1*%
X43575000Y-57992500D03*
X43575000Y-59817500D03*
%TD*%
D19*
%TO.C,MX4*%
X100385000Y-71485000D03*
D20*
X100405000Y-71195000D03*
D21*
X94710001Y-73005000D03*
D22*
X97865000Y-76275000D03*
D20*
X95365000Y-72275000D03*
D23*
X96595000Y-81355000D03*
D24*
X99135000Y-81355000D03*
D25*
X92785000Y-76275000D03*
X102945000Y-76275000D03*
%TD*%
%TO.C,MX3*%
X102945000Y-57225000D03*
X92785000Y-57225000D03*
D24*
X99135000Y-62305000D03*
D23*
X96595000Y-62305000D03*
D20*
X95365000Y-53225000D03*
D22*
X97865000Y-57225000D03*
D21*
X94710001Y-53955000D03*
D20*
X100405000Y-52145000D03*
D19*
X100385000Y-52435000D03*
%TD*%
D25*
%TO.C,MX2*%
X83895000Y-76275000D03*
X73735000Y-76275000D03*
D24*
X80085000Y-81355000D03*
D23*
X77545000Y-81355000D03*
D20*
X76315000Y-72275000D03*
D22*
X78815000Y-76275000D03*
D21*
X75660001Y-73005000D03*
D20*
X81355000Y-71195000D03*
D19*
X81335000Y-71485000D03*
%TD*%
D25*
%TO.C,MX1*%
X83895000Y-57225000D03*
X73735000Y-57225000D03*
D24*
X80085000Y-62305000D03*
D23*
X77545000Y-62305000D03*
D20*
X76315000Y-53225000D03*
D22*
X78815000Y-57225000D03*
D21*
X75660001Y-53955000D03*
D20*
X81355000Y-52145000D03*
D19*
X81335000Y-52435000D03*
%TD*%
D26*
%TO.C,F1*%
X42896940Y-64193750D03*
X42896940Y-66993750D03*
%TD*%
D27*
%TO.C,D4*%
X105802500Y-74625000D03*
X105802500Y-77925000D03*
%TD*%
%TO.C,D3*%
X105802500Y-55575000D03*
X105802500Y-58875000D03*
%TD*%
%TO.C,D2*%
X86752500Y-74625000D03*
X86752500Y-77925000D03*
%TD*%
%TO.C,D1*%
X86752500Y-58875000D03*
X86752500Y-55575000D03*
%TD*%
D28*
%TO.C,C7*%
X50973750Y-65928000D03*
X49073750Y-65928000D03*
%TD*%
D29*
%TO.C,C6*%
X55794000Y-74919500D03*
X53894000Y-74919500D03*
%TD*%
D30*
%TO.C,C5*%
X56935000Y-56700000D03*
X56935000Y-54800000D03*
%TD*%
D31*
%TO.C,C4*%
X65190000Y-54800000D03*
X65190000Y-56700000D03*
%TD*%
D28*
%TO.C,C3*%
X61615000Y-74915250D03*
X63515000Y-74915250D03*
%TD*%
D30*
%TO.C,C2*%
X66706000Y-62215250D03*
X66706000Y-64115250D03*
%TD*%
%TO.C,C1*%
X51855000Y-56705000D03*
X51855000Y-58605000D03*
%TD*%
%LPD*%
M02*
