%TF.GenerationSoftware,KiCad,Pcbnew,7.0.10*%
%TF.CreationDate,2024-01-02T16:32:01-06:00*%
%TF.ProjectId,Keyboard3x3,4b657962-6f61-4726-9433-78332e6b6963,rev?*%
%TF.SameCoordinates,Original*%
%TF.FileFunction,Copper,L1,Top*%
%TF.FilePolarity,Positive*%
%FSLAX46Y46*%
G04 Gerber Fmt 4.6, Leading zero omitted, Abs format (unit mm)*
G04 Created by KiCad (PCBNEW 7.0.10) date 2024-01-02 16:32:01*
%MOMM*%
%LPD*%
G01*
G04 APERTURE LIST*
G04 Aperture macros list*
%AMHorizOval*
0 Thick line with rounded ends*
0 $1 width*
0 $2 $3 position (X,Y) of the first rounded end (center of the circle)*
0 $4 $5 position (X,Y) of the second rounded end (center of the circle)*
0 Add line between two ends*
20,1,$1,$2,$3,$4,$5,0*
0 Add two circle primitives to create the rounded ends*
1,1,$1,$2,$3*
1,1,$1,$4,$5*%
G04 Aperture macros list end*
%TA.AperFunction,ComponentPad*%
%ADD10O,1.700000X2.700000*%
%TD*%
%TA.AperFunction,ComponentPad*%
%ADD11HorizOval,2.250000X0.020000X0.290000X-0.020000X-0.290000X0*%
%TD*%
%TA.AperFunction,ComponentPad*%
%ADD12C,2.250000*%
%TD*%
%TA.AperFunction,ComponentPad*%
%ADD13HorizOval,2.250000X0.655001X0.730000X-0.655001X-0.730000X0*%
%TD*%
%TA.AperFunction,ComponentPad*%
%ADD14C,1.905000*%
%TD*%
%TA.AperFunction,ComponentPad*%
%ADD15R,1.905000X1.905000*%
%TD*%
%TA.AperFunction,ViaPad*%
%ADD16C,0.800000*%
%TD*%
%TA.AperFunction,Conductor*%
%ADD17C,0.254000*%
%TD*%
%TA.AperFunction,Conductor*%
%ADD18C,0.381000*%
%TD*%
G04 APERTURE END LIST*
D10*
%TO.P,USB1,6,SHIELD*%
%TO.N,GND*%
X41002000Y-53950000D03*
X48302000Y-53950000D03*
X48302000Y-49450000D03*
X41002000Y-49450000D03*
%TD*%
D11*
%TO.P,MX4,2,ROW*%
%TO.N,Net-(D4-A)*%
X100385000Y-71485000D03*
D12*
X100405000Y-71195000D03*
D13*
%TO.P,MX4,1,COL*%
%TO.N,COL1*%
X94710001Y-73005000D03*
D12*
X95365000Y-72275000D03*
D14*
%TO.P,MX4,3*%
%TO.N,N/C*%
X96595000Y-81355000D03*
D15*
%TO.P,MX4,4*%
X99135000Y-81355000D03*
%TD*%
%TO.P,MX3,4*%
%TO.N,N/C*%
X99135000Y-62305000D03*
D14*
%TO.P,MX3,3*%
X96595000Y-62305000D03*
D12*
%TO.P,MX3,1,COL*%
%TO.N,COL1*%
X95365000Y-53225000D03*
D13*
X94710001Y-53955000D03*
D12*
%TO.P,MX3,2,ROW*%
%TO.N,Net-(D3-A)*%
X100405000Y-52145000D03*
D11*
X100385000Y-52435000D03*
%TD*%
D15*
%TO.P,MX2,4*%
%TO.N,N/C*%
X80085000Y-81355000D03*
D14*
%TO.P,MX2,3*%
X77545000Y-81355000D03*
D12*
%TO.P,MX2,1,COL*%
%TO.N,COL0*%
X76315000Y-72275000D03*
D13*
X75660001Y-73005000D03*
D12*
%TO.P,MX2,2,ROW*%
%TO.N,Net-(D2-A)*%
X81355000Y-71195000D03*
D11*
X81335000Y-71485000D03*
%TD*%
D15*
%TO.P,MX1,4*%
%TO.N,N/C*%
X80085000Y-62305000D03*
D14*
%TO.P,MX1,3*%
X77545000Y-62305000D03*
D12*
%TO.P,MX1,1,COL*%
%TO.N,COL0*%
X76315000Y-53225000D03*
D13*
X75660001Y-53955000D03*
D12*
%TO.P,MX1,2,ROW*%
%TO.N,Net-(D1-A)*%
X81355000Y-52145000D03*
D11*
X81335000Y-52435000D03*
%TD*%
D16*
%TO.N,+5V*%
X50875000Y-63575000D03*
%TO.N,Net-(U1-~{RESET})*%
X47700000Y-59130000D03*
X53415000Y-78815000D03*
%TO.N,+5V*%
X64845000Y-76275000D03*
X52780000Y-76275000D03*
X68655000Y-64210000D03*
X68020000Y-74370000D03*
X50875000Y-69925000D03*
X50875000Y-55320000D03*
%TD*%
D17*
%TO.N,COL1*%
X94055000Y-54685000D02*
X94055000Y-73735000D01*
%TO.N,COL0*%
X75005000Y-54685000D02*
X75005000Y-73735000D01*
D18*
%TO.N,+5V*%
X50875000Y-69925000D02*
X50875000Y-63575000D01*
X50875000Y-63575000D02*
X50875000Y-55320000D01*
D17*
%TO.N,Net-(U1-~{RESET})*%
X47700000Y-73100000D02*
X47700000Y-59130000D01*
X53415000Y-78815000D02*
X47700000Y-73100000D01*
D18*
%TO.N,+5V*%
X52780000Y-76275000D02*
X64845000Y-76275000D01*
X68655000Y-73735000D02*
X68655000Y-64210000D01*
X68020000Y-74370000D02*
X68655000Y-73735000D01*
%TD*%
M02*
