%TF.GenerationSoftware,KiCad,Pcbnew,7.0.10*%
%TF.CreationDate,2024-01-02T18:30:23-06:00*%
%TF.ProjectId,Keyboard3x3,4b657962-6f61-4726-9433-78332e6b6963,rev?*%
%TF.SameCoordinates,Original*%
%TF.FileFunction,Soldermask,Bot*%
%TF.FilePolarity,Negative*%
%FSLAX46Y46*%
G04 Gerber Fmt 4.6, Leading zero omitted, Abs format (unit mm)*
G04 Created by KiCad (PCBNEW 7.0.10) date 2024-01-02 18:30:23*
%MOMM*%
%LPD*%
G01*
G04 APERTURE LIST*
G04 Aperture macros list*
%AMRoundRect*
0 Rectangle with rounded corners*
0 $1 Rounding radius*
0 $2 $3 $4 $5 $6 $7 $8 $9 X,Y pos of 4 corners*
0 Add a 4 corners polygon primitive as box body*
4,1,4,$2,$3,$4,$5,$6,$7,$8,$9,$2,$3,0*
0 Add four circle primitives for the rounded corners*
1,1,$1+$1,$2,$3*
1,1,$1+$1,$4,$5*
1,1,$1+$1,$6,$7*
1,1,$1+$1,$8,$9*
0 Add four rect primitives between the rounded corners*
20,1,$1+$1,$2,$3,$4,$5,0*
20,1,$1+$1,$4,$5,$6,$7,0*
20,1,$1+$1,$6,$7,$8,$9,0*
20,1,$1+$1,$8,$9,$2,$3,0*%
%AMHorizOval*
0 Thick line with rounded ends*
0 $1 width*
0 $2 $3 position (X,Y) of the first rounded end (center of the circle)*
0 $4 $5 position (X,Y) of the second rounded end (center of the circle)*
0 Add line between two ends*
20,1,$1,$2,$3,$4,$5,0*
0 Add two circle primitives to create the rounded ends*
1,1,$1,$2,$3*
1,1,$1,$4,$5*%
G04 Aperture macros list end*
%ADD10C,1.750000*%
%ADD11C,3.987800*%
%ADD12HorizOval,2.250000X0.655001X0.730000X-0.655001X-0.730000X0*%
%ADD13C,2.250000*%
%ADD14HorizOval,2.250000X0.020000X0.290000X-0.020000X-0.290000X0*%
%ADD15C,1.905000*%
%ADD16R,1.905000X1.905000*%
%ADD17R,0.500000X2.250000*%
%ADD18O,1.700000X2.700000*%
%ADD19RoundRect,0.250000X-0.250000X-0.475000X0.250000X-0.475000X0.250000X0.475000X-0.250000X0.475000X0*%
%ADD20RoundRect,0.250000X-0.450000X0.262500X-0.450000X-0.262500X0.450000X-0.262500X0.450000X0.262500X0*%
%ADD21RoundRect,0.225000X0.375000X-0.225000X0.375000X0.225000X-0.375000X0.225000X-0.375000X-0.225000X0*%
%ADD22RoundRect,0.250000X0.250000X0.475000X-0.250000X0.475000X-0.250000X-0.475000X0.250000X-0.475000X0*%
%ADD23RoundRect,0.250000X0.475000X-0.250000X0.475000X0.250000X-0.475000X0.250000X-0.475000X-0.250000X0*%
%ADD24RoundRect,0.250000X-0.475000X0.250000X-0.475000X-0.250000X0.475000X-0.250000X0.475000X0.250000X0*%
%ADD25R,1.400000X1.200000*%
%ADD26R,1.500000X0.550000*%
%ADD27R,0.550000X1.500000*%
%ADD28R,1.800000X1.100000*%
%ADD29RoundRect,0.250000X-0.625000X0.375000X-0.625000X-0.375000X0.625000X-0.375000X0.625000X0.375000X0*%
G04 APERTURE END LIST*
D10*
%TO.C,MX3*%
X92785000Y-57225000D03*
D11*
X97865000Y-57225000D03*
D10*
X102945000Y-57225000D03*
D12*
X94710001Y-53955000D03*
D13*
X95365000Y-53225000D03*
D14*
X100385000Y-52435000D03*
D13*
X100405000Y-52145000D03*
D15*
X96595000Y-62305000D03*
D16*
X99135000Y-62305000D03*
%TD*%
D10*
%TO.C,MX1*%
X73735000Y-57225000D03*
D11*
X78815000Y-57225000D03*
D10*
X83895000Y-57225000D03*
D12*
X75660001Y-53955000D03*
D13*
X76315000Y-53225000D03*
D14*
X81335000Y-52435000D03*
D13*
X81355000Y-52145000D03*
D15*
X77545000Y-62305000D03*
D16*
X80085000Y-62305000D03*
%TD*%
D10*
%TO.C,MX2*%
X73735000Y-76275000D03*
D11*
X78815000Y-76275000D03*
D10*
X83895000Y-76275000D03*
D12*
X75660001Y-73005000D03*
D13*
X76315000Y-72275000D03*
D14*
X81335000Y-71485000D03*
D13*
X81355000Y-71195000D03*
D15*
X77545000Y-81355000D03*
D16*
X80085000Y-81355000D03*
%TD*%
D10*
%TO.C,MX4*%
X92785000Y-76275000D03*
D11*
X97865000Y-76275000D03*
D10*
X102945000Y-76275000D03*
D12*
X94710001Y-73005000D03*
D13*
X95365000Y-72275000D03*
D14*
X100385000Y-71485000D03*
D13*
X100405000Y-71195000D03*
D15*
X96595000Y-81355000D03*
D16*
X99135000Y-81355000D03*
%TD*%
D17*
%TO.C,USB1*%
X46252000Y-53950000D03*
X45452000Y-53950000D03*
X44652000Y-53950000D03*
X43852000Y-53950000D03*
X43052000Y-53950000D03*
D18*
X48302000Y-49450000D03*
X41002000Y-49450000D03*
X48302000Y-53950000D03*
X41002000Y-53950000D03*
%TD*%
D19*
%TO.C,C6*%
X53894000Y-74919500D03*
X55794000Y-74919500D03*
%TD*%
D20*
%TO.C,R2*%
X45480000Y-57992500D03*
X45480000Y-59817500D03*
%TD*%
%TO.C,R3*%
X49290000Y-56722500D03*
X49290000Y-58547500D03*
%TD*%
%TO.C,R1*%
X43575000Y-57992500D03*
X43575000Y-59817500D03*
%TD*%
D21*
%TO.C,D3*%
X105802500Y-58875000D03*
X105802500Y-55575000D03*
%TD*%
%TO.C,D1*%
X86752500Y-58875000D03*
X86752500Y-55575000D03*
%TD*%
D22*
%TO.C,C7*%
X50973750Y-65928000D03*
X49073750Y-65928000D03*
%TD*%
D23*
%TO.C,C2*%
X66706000Y-64115250D03*
X66706000Y-62215250D03*
%TD*%
D24*
%TO.C,C4*%
X65190000Y-54800000D03*
X65190000Y-56700000D03*
%TD*%
D25*
%TO.C,Y1*%
X62505368Y-56615268D03*
X60305368Y-56615268D03*
X60305368Y-54915268D03*
X62505368Y-54915268D03*
%TD*%
D26*
%TO.C,U1*%
X53080000Y-70465000D03*
X53080000Y-69665000D03*
X53080000Y-68865000D03*
X53080000Y-68065000D03*
X53080000Y-67265000D03*
X53080000Y-66465000D03*
X53080000Y-65665000D03*
X53080000Y-64865000D03*
X53080000Y-64065000D03*
X53080000Y-63265000D03*
X53080000Y-62465000D03*
D27*
X54780000Y-60765000D03*
X55580000Y-60765000D03*
X56380000Y-60765000D03*
X57180000Y-60765000D03*
X57980000Y-60765000D03*
X58780000Y-60765000D03*
X59580000Y-60765000D03*
X60380000Y-60765000D03*
X61180000Y-60765000D03*
X61980000Y-60765000D03*
X62780000Y-60765000D03*
D26*
X64480000Y-62465000D03*
X64480000Y-63265000D03*
X64480000Y-64065000D03*
X64480000Y-64865000D03*
X64480000Y-65665000D03*
X64480000Y-66465000D03*
X64480000Y-67265000D03*
X64480000Y-68065000D03*
X64480000Y-68865000D03*
X64480000Y-69665000D03*
X64480000Y-70465000D03*
D27*
X62780000Y-72165000D03*
X61980000Y-72165000D03*
X61180000Y-72165000D03*
X60380000Y-72165000D03*
X59580000Y-72165000D03*
X58780000Y-72165000D03*
X57980000Y-72165000D03*
X57180000Y-72165000D03*
X56380000Y-72165000D03*
X55580000Y-72165000D03*
X54780000Y-72165000D03*
%TD*%
D22*
%TO.C,C3*%
X63515000Y-74915250D03*
X61615000Y-74915250D03*
%TD*%
D20*
%TO.C,R4*%
X66715750Y-70721500D03*
X66715750Y-72546500D03*
%TD*%
D21*
%TO.C,D4*%
X105802500Y-77925000D03*
X105802500Y-74625000D03*
%TD*%
D28*
%TO.C,SW1*%
X46526440Y-84023250D03*
X52726440Y-80323250D03*
X46526440Y-80323250D03*
X52726440Y-84023250D03*
%TD*%
D23*
%TO.C,C1*%
X51855000Y-58605000D03*
X51855000Y-56705000D03*
%TD*%
D29*
%TO.C,F1*%
X42896940Y-64193750D03*
X42896940Y-66993750D03*
%TD*%
D21*
%TO.C,D2*%
X86752500Y-77925000D03*
X86752500Y-74625000D03*
%TD*%
D23*
%TO.C,C5*%
X56935000Y-56700000D03*
X56935000Y-54800000D03*
%TD*%
M02*
