M48
; DRILL file {KiCad 7.0.10} date Wed Jan 31 10:21:24 2024
; FORMAT={-:-/ absolute / inch / decimal}
; #@! TF.CreationDate,2024-01-31T10:21:24-06:00
; #@! TF.GenerationSoftware,Kicad,Pcbnew,7.0.10
; #@! TF.FileFunction,Plated,1,2,PTH
FMAT,2
INCH
; #@! TA.AperFunction,Plated,PTH,ViaDrill
T1C0.0157
; #@! TA.AperFunction,Plated,PTH,ComponentDrill
T2C0.0197
; #@! TA.AperFunction,Plated,PTH,ComponentDrill
T3C0.0276
; #@! TA.AperFunction,Plated,PTH,ComponentDrill
T4C0.0409
; #@! TA.AperFunction,Plated,PTH,ComponentDrill
T5C0.0579
%
G90
G05
T1
X1.878Y-2.328
X2.003Y-2.178
X2.003Y-2.503
X2.003Y-2.753
X2.078Y-3.003
X2.103Y-3.103
X2.153Y-2.453
X2.1923Y-2.453
X2.206Y-2.5314
X2.2077Y-2.4892
X2.553Y-3.003
X2.678Y-2.928
X2.703Y-2.528
T2
X2.0654Y-1.9654
X2.1047Y-1.9654
X2.1441Y-1.9654
X2.1835Y-1.9654
T4
X3.053Y-2.453
X3.053Y-3.203
X3.153Y-2.453
X3.153Y-3.203
X3.803Y-2.453
X3.803Y-3.203
X3.903Y-2.453
X3.903Y-3.203
T5
X2.953Y-2.153
X2.953Y-2.903
X3.0045Y-2.0955
X3.0045Y-2.8455
X3.2014Y-2.0758
X3.2014Y-2.8258
X3.203Y-2.053
X3.203Y-2.803
X3.703Y-2.153
X3.703Y-2.903
X3.7545Y-2.0955
X3.7545Y-2.8455
X3.9514Y-2.0758
X3.9514Y-2.8258
X3.953Y-2.053
X3.953Y-2.803
T3
G00X1.6143Y-1.9232
M15
G01X1.6143Y-1.9705
M16
G05
G00X1.6143Y-2.1004
M15
G01X1.6143Y-2.1476
M16
G05
G00X1.9017Y-1.9232
M15
G01X1.9017Y-1.9705
M16
G05
G00X1.9017Y-2.1004
M15
G01X1.9017Y-2.1476
M16
G05
M30
