%TF.GenerationSoftware,KiCad,Pcbnew,7.0.10*%
%TF.CreationDate,2024-01-31T10:21:27-06:00*%
%TF.ProjectId,Keyboard3x3,4b657962-6f61-4726-9433-78332e6b6963,rev?*%
%TF.SameCoordinates,Original*%
%TF.FileFunction,Copper,L1,Top*%
%TF.FilePolarity,Positive*%
%FSLAX46Y46*%
G04 Gerber Fmt 4.6, Leading zero omitted, Abs format (unit mm)*
G04 Created by KiCad (PCBNEW 7.0.10) date 2024-01-31 10:21:27*
%MOMM*%
%LPD*%
G01*
G04 APERTURE LIST*
G04 Aperture macros list*
%AMHorizOval*
0 Thick line with rounded ends*
0 $1 width*
0 $2 $3 position (X,Y) of the first rounded end (center of the circle)*
0 $4 $5 position (X,Y) of the second rounded end (center of the circle)*
0 Add line between two ends*
20,1,$1,$2,$3,$4,$5,0*
0 Add two circle primitives to create the rounded ends*
1,1,$1,$2,$3*
1,1,$1,$4,$5*%
G04 Aperture macros list end*
%TA.AperFunction,ComponentPad*%
%ADD10R,0.850000X0.850000*%
%TD*%
%TA.AperFunction,ComponentPad*%
%ADD11O,0.850000X0.850000*%
%TD*%
%TA.AperFunction,ComponentPad*%
%ADD12HorizOval,2.250000X0.655001X0.730000X-0.655001X-0.730000X0*%
%TD*%
%TA.AperFunction,ComponentPad*%
%ADD13C,2.250000*%
%TD*%
%TA.AperFunction,ComponentPad*%
%ADD14HorizOval,2.250000X0.020000X0.290000X-0.020000X-0.290000X0*%
%TD*%
%TA.AperFunction,ComponentPad*%
%ADD15C,1.905000*%
%TD*%
%TA.AperFunction,ComponentPad*%
%ADD16R,1.905000X1.905000*%
%TD*%
%TA.AperFunction,ComponentPad*%
%ADD17O,1.700000X2.700000*%
%TD*%
%TA.AperFunction,ViaPad*%
%ADD18C,0.800000*%
%TD*%
%TA.AperFunction,Conductor*%
%ADD19C,0.254000*%
%TD*%
%TA.AperFunction,Conductor*%
%ADD20C,0.381000*%
%TD*%
G04 APERTURE END LIST*
D10*
%TO.P,J5,1,Pin_1*%
%TO.N,Net-(J5-Pin_1)*%
X52460000Y-49920000D03*
D11*
%TO.P,J5,2,Pin_2*%
%TO.N,Net-(J5-Pin_2)*%
X53460000Y-49920000D03*
%TO.P,J5,3,Pin_3*%
%TO.N,Net-(J5-Pin_3)*%
X54460000Y-49920000D03*
%TO.P,J5,4,Pin_4*%
%TO.N,Net-(J5-Pin_4)*%
X55460000Y-49920000D03*
%TD*%
D12*
%TO.P,MX3,1,COL*%
%TO.N,COL1*%
X94710001Y-53955000D03*
D13*
X95365000Y-53225000D03*
D14*
%TO.P,MX3,2,ROW*%
%TO.N,Net-(D3-A)*%
X100385000Y-52435000D03*
D13*
X100405000Y-52145000D03*
D15*
%TO.P,MX3,3*%
%TO.N,N/C*%
X96595000Y-62305000D03*
D16*
%TO.P,MX3,4*%
X99135000Y-62305000D03*
%TD*%
D12*
%TO.P,MX1,1,COL*%
%TO.N,COL0*%
X75660001Y-53955000D03*
D13*
X76315000Y-53225000D03*
D14*
%TO.P,MX1,2,ROW*%
%TO.N,Net-(D1-A)*%
X81335000Y-52435000D03*
D13*
X81355000Y-52145000D03*
D15*
%TO.P,MX1,3*%
%TO.N,N/C*%
X77545000Y-62305000D03*
D16*
%TO.P,MX1,4*%
X80085000Y-62305000D03*
%TD*%
D12*
%TO.P,MX2,1,COL*%
%TO.N,COL0*%
X75660001Y-73005000D03*
D13*
X76315000Y-72275000D03*
D14*
%TO.P,MX2,2,ROW*%
%TO.N,Net-(D2-A)*%
X81335000Y-71485000D03*
D13*
X81355000Y-71195000D03*
D15*
%TO.P,MX2,3*%
%TO.N,N/C*%
X77545000Y-81355000D03*
D16*
%TO.P,MX2,4*%
X80085000Y-81355000D03*
%TD*%
D12*
%TO.P,MX4,1,COL*%
%TO.N,COL1*%
X94710001Y-73005000D03*
D13*
X95365000Y-72275000D03*
D14*
%TO.P,MX4,2,ROW*%
%TO.N,Net-(D4-A)*%
X100385000Y-71485000D03*
D13*
X100405000Y-71195000D03*
D15*
%TO.P,MX4,3*%
%TO.N,N/C*%
X96595000Y-81355000D03*
D16*
%TO.P,MX4,4*%
X99135000Y-81355000D03*
%TD*%
D17*
%TO.P,USB1,6,SHIELD*%
%TO.N,GND*%
X48302000Y-49450000D03*
X41002000Y-49450000D03*
X48302000Y-53950000D03*
X41002000Y-53950000D03*
%TD*%
D18*
%TO.N,Net-(J5-Pin_4)*%
X56032854Y-64296716D03*
%TO.N,Net-(J5-Pin_3)*%
X56076072Y-63225364D03*
%TO.N,Net-(J5-Pin_2)*%
X55685003Y-62305000D03*
%TO.N,Net-(J5-Pin_1)*%
X54685000Y-62305000D03*
%TO.N,+5V*%
X50875000Y-63575000D03*
X50875000Y-69925000D03*
X68020000Y-74370000D03*
X68655000Y-64210000D03*
X64845000Y-76275000D03*
X52780000Y-76275000D03*
X50875000Y-55320000D03*
%TO.N,Net-(U1-~{RESET})*%
X53415000Y-78815000D03*
X47700000Y-59130000D03*
%TD*%
D19*
%TO.N,Net-(J5-Pin_4)*%
X55320000Y-50060000D02*
X55460000Y-49920000D01*
X55320000Y-60269811D02*
X55320000Y-50060000D01*
X56866003Y-61815814D02*
X55320000Y-60269811D01*
X56866003Y-63463567D02*
X56866003Y-61815814D01*
X56032854Y-64296716D02*
X56866003Y-63463567D01*
%TO.N,Net-(J5-Pin_2)*%
X53460000Y-60051866D02*
X53460000Y-49920000D01*
%TO.N,Net-(J5-Pin_3)*%
X55792773Y-63225364D02*
X56412003Y-62606134D01*
X56076072Y-63225364D02*
X55792773Y-63225364D01*
X56412003Y-62606134D02*
X56412003Y-62003866D01*
X56412003Y-62003866D02*
X54460000Y-60051863D01*
X54460000Y-60051863D02*
X54460000Y-49920000D01*
%TO.N,Net-(J5-Pin_2)*%
X55685003Y-62305000D02*
X55685003Y-62276869D01*
X55685003Y-62276869D02*
X53460000Y-60051866D01*
%TO.N,Net-(J5-Pin_1)*%
X54685000Y-62305000D02*
X52460000Y-60080000D01*
X52460000Y-60080000D02*
X52460000Y-49920000D01*
D20*
%TO.N,+5V*%
X50875000Y-63575000D02*
X50875000Y-55320000D01*
X50875000Y-69925000D02*
X50875000Y-63575000D01*
X68655000Y-73735000D02*
X68655000Y-64210000D01*
X52780000Y-76275000D02*
X64845000Y-76275000D01*
X68020000Y-74370000D02*
X68655000Y-73735000D01*
D19*
%TO.N,COL0*%
X75005000Y-54685000D02*
X75005000Y-73735000D01*
%TO.N,COL1*%
X94055000Y-54685000D02*
X94055000Y-73735000D01*
%TO.N,Net-(U1-~{RESET})*%
X47700000Y-73100000D02*
X47700000Y-59130000D01*
X53415000Y-78815000D02*
X47700000Y-73100000D01*
%TD*%
M02*
